<svg width="24" height="24" viewBox="0 0 24 24" fill="none" xmlns="http://www.w3.org/2000/svg">
<path fill-rule="evenodd" clip-rule="evenodd" d="M13.06 16.06C12.7788 16.3409 12.3975 16.4987 12 16.4987C11.6025 16.4987 11.2213 16.3409 10.94 16.06L5.28202 10.404C5.00076 10.1226 4.8428 9.741 4.8429 9.34314C4.84299 8.94528 5.00113 8.56376 5.28252 8.2825C5.56392 8.00123 5.94552 7.84327 6.34338 7.84337C6.74123 7.84346 7.12276 8.0016 7.40402 8.283L12 12.879L16.596 8.283C16.8788 8.00962 17.2576 7.85825 17.6509 7.86148C18.0442 7.86471 18.4205 8.02229 18.6988 8.30027C18.977 8.57825 19.1349 8.9544 19.1385 9.34769C19.1421 9.74099 18.9911 10.12 18.718 10.403L13.061 16.061L13.06 16.06Z" fill="black"/>
</svg>
