<svg width="15" height="15" viewBox="0 0 25 25" fill="none" xmlns="http://www.w3.org/2000/svg">
<path d="M13.1246 24.3747C12.9994 24.3747 12.8755 24.3497 12.7601 24.301C12.6447 24.2524 12.5402 24.1811 12.4529 24.0914C12.3655 24.0018 12.2969 23.8955 12.2513 23.7789C12.2057 23.6623 12.1838 23.5377 12.1871 23.4125V12.6635C12.1871 12.5392 12.1377 12.42 12.0498 12.3321C11.9619 12.2442 11.8427 12.1948 11.7184 12.1948H0.961154C0.763973 12.1971 0.570897 12.1384 0.408403 12.0267C0.24591 11.915 0.121955 11.7557 0.0535366 11.5708C-0.0243786 11.3502 -0.017027 11.1085 0.0741474 10.8931C0.165322 10.6776 0.333732 10.5041 0.54631 10.4065L23.0463 0.0852065C23.2201 0.00555806 23.4142 -0.019032 23.6024 0.0147343C23.7906 0.0485006 23.964 0.139009 24.0993 0.274119C24.2346 0.40923 24.3253 0.582483 24.3594 0.77064C24.3934 0.958798 24.3691 1.15286 24.2897 1.32681L13.9772 23.8268C13.9025 23.9902 13.7824 24.1287 13.6313 24.2259C13.4802 24.323 13.3043 24.3746 13.1246 24.3747Z" fill="black"/>
</svg>
