<svg width="30" height="24" viewBox="0 0 30 24" fill="none" xmlns="http://www.w3.org/2000/svg">
<path d="M17.8571 6.66664H15.7143V13.3333L21.8286 16.7199L22.8571 15.1066L17.8571 12.3333V6.66664ZM17.1429 0C13.7329 0 10.4627 1.26428 8.05148 3.5147C5.6403 5.76513 4.28571 8.81737 4.28571 12H0L5.65714 17.3733L11.4286 12H7.14286C7.14286 9.52461 8.19643 7.15065 10.0718 5.40032C11.9472 3.64998 14.4907 2.66666 17.1429 2.66666C19.795 2.66666 22.3386 3.64998 24.2139 5.40032C26.0893 7.15065 27.1429 9.52461 27.1429 12C27.1429 14.4753 26.0893 16.8493 24.2139 18.5996C22.3386 20.3499 19.795 21.3333 17.1429 21.3333C14.3857 21.3333 11.8857 20.2799 10.0857 18.5866L8.05714 20.4799C9.24496 21.6007 10.6603 22.4893 12.2203 23.0937C13.7803 23.6981 15.4538 24.0062 17.1429 23.9999C20.5528 23.9999 23.823 22.7356 26.2342 20.4852C28.6454 18.2348 30 15.1825 30 12C30 8.81737 28.6454 5.76513 26.2342 3.5147C23.823 1.26428 20.5528 0 17.1429 0Z" fill="black"/>
</svg>
