<svg width="18" height="18" viewBox="0 0 18 18" fill="none" xmlns="http://www.w3.org/2000/svg">
<path fill-rule="evenodd" clip-rule="evenodd" d="M11.385 12.446C10.0372 13.5229 8.32814 14.0429 6.60891 13.8991C4.88969 13.7552 3.29078 12.9586 2.14058 11.6727C0.990376 10.3869 0.376198 8.70937 0.424184 6.9848C0.47217 5.26024 1.17868 3.6195 2.3986 2.39958C3.61853 1.17965 5.25926 0.473147 6.98383 0.425161C8.70839 0.377174 10.3859 0.991352 11.6717 2.14155C12.9576 3.29175 13.7543 4.89066 13.8981 6.60989C14.0419 8.32912 13.5219 10.0382 12.445 11.386L17.601 16.541C17.6747 16.6097 17.7338 16.6925 17.7748 16.7845C17.8158 16.8765 17.8378 16.9758 17.8396 17.0765C17.8414 17.1772 17.8229 17.2772 17.7851 17.3706C17.7474 17.464 17.6913 17.5488 17.6201 17.62C17.5488 17.6913 17.464 17.7474 17.3706 17.7851C17.2772 17.8228 17.1772 17.8414 17.0765 17.8396C16.9758 17.8378 16.8765 17.8158 16.7845 17.7748C16.6925 17.7338 16.6097 17.6747 16.541 17.601L11.385 12.446ZM3.45903 10.884C2.72507 10.15 2.22518 9.21483 2.02254 8.19677C1.8199 7.17872 1.9236 6.12344 2.32054 5.1643C2.71748 4.20517 3.38984 3.38523 4.25264 2.8081C5.11545 2.23098 6.12997 1.92258 7.168 1.92189C8.20602 1.92119 9.22096 2.22822 10.0845 2.80418C10.9481 3.38014 11.6216 4.19917 12.0198 5.15778C12.418 6.11638 12.5232 7.17152 12.3219 8.18984C12.1206 9.20817 11.622 10.144 10.889 10.879L10.884 10.884L10.879 10.888C9.89412 11.8706 8.55945 12.4221 7.1682 12.4214C5.77694 12.4206 4.44287 11.8677 3.45903 10.884Z" fill="black"/>
</svg>
